# xmcd
#
# Track frame offsets:
#	150
#	14283
#	34825
#	55057
#	73612
#	90972
#	109266
#	125406
#	144241
#	166281
#	182987
#	198747
#	216960
#	232035
#	250994
#	270160
#
# Disc length: 3833 seconds
#
# Revision: 1
# Processed by: cddbd v1.5.2PL0 Copyright (c) Steve Scherf et al.
# Submitted via: audiograbber 1.83.01
#
DISCID=e10ef710
DTITLE=HOUSE PARTY KARAOKE - HPK1-3
DYEAR=1900
DGENRE=KARAOKE
TTITLE0=George Strait - She'll Leave You with A Smile
TTITLE1=Tim McGraw - She's My Kind Of Rain
TTITLE2=Toby Keith - Who's Your Daddy?
TTITLE3=Gary Allen - Man To Man
TTITLE4=Dixie Chicks - Long Time gone
TTITLE5=Jennifer Hanson - Beautiful Goodbye
TTITLE6=Toby Keith and Willie Nelson - Beer For My Horses
TTITLE7=Kellie Coffey - When You Lie Next To Me
TTITLE8=Martina McBride - Where Would You Be
TTITLE9=Jeff Carson - I Can Only Imagine
TTITLE10=Mark Wills - 19 Somethin'
TTITLE11=Diamond Rio - I Believe
TTITLE12=Rascal Flatts - Love You Out Loud
TTITLE13=Alan Jackson - Drive (For Daddy Gene)
TTITLE14=Chris Cagle - I Breathe In,I Breathe Out
TTITLE15=Kenny Chesney - No Shoes,No Shirt,No Problems
EXTD=
EXTT0=
EXTT1=
EXTT2=
EXTT3=
EXTT4=
EXTT5=
EXTT6=
EXTT7=
EXTT8=
EXTT9=
EXTT10=
EXTT11=
EXTT12=
EXTT13=
EXTT14=
EXTT15=
PLAYORDER=
